<svg xmlns="http://www.w3.org/2000/svg" viewBox="0 0 378.28 98.39"><defs><style>.cls-1{fill:#0d0d0d;}</style></defs><g id="Layer_2" data-name="Layer 2"><g id="Layer_1-2" data-name="Layer 1"><path class="cls-1" d="M0,0H42c8.23,0,21.07.87,28.71,8.08C73,10.24,78.05,16,78.05,26.83c0,3.61-.43,8.8-4,13.28A20.29,20.29,0,0,1,65.64,46l-.14.87a22.29,22.29,0,0,1,10.1,5.77,21.81,21.81,0,0,1,7.07,16.73c0,7.51-2.46,14.14-9.09,19.48-8.08,6.49-17.89,7.36-24.67,7.36H0ZM32.32,36.93H37.8c2,0,5.05-.57,6.64-2.16a6.92,6.92,0,0,0,1.87-5.05,6.39,6.39,0,0,0-2.16-5c-1.88-1.44-5-1.59-6.35-1.59H32.32Zm0,36.07h7.07c2,0,5-.14,7.35-1.59a7.56,7.56,0,0,0,3.32-6.49,7.32,7.32,0,0,0-2.59-5.77c-2.31-1.87-5.78-2-7.65-2h-7.5Z"/><path class="cls-1" d="M95.37,66.51a6.07,6.07,0,0,0,4.48,1.73,5,5,0,0,0,4-1.73c1.88-2.17,2-5.63,2-7.07V0h34.34V67.09a30.44,30.44,0,0,1-8.66,21.49c-6.34,6.64-15.14,9.81-24.09,9.81A42.45,42.45,0,0,1,82.68,90.6l-3.9-2.74"/><path class="cls-1" d="M175.12,84.25l-2.6,12H135.59L168.91,0h38.67l34.33,96.23H204.84l-3.18-12Zm14.13-52.08H188A50.77,50.77,0,0,1,186.37,43l-4.76,18.47h14L191.13,43A107.5,107.5,0,0,1,189.25,32.17Z"/><path class="cls-1" d="M244.1,96.23V0h65.79V26.4H279v9h27.27V60.59H279v9.24h30.88v26.4Z"/><path class="cls-1" d="M314.07,96.23V0h64.21V27.41H349v9.81h25.68V62.61H349V96.23Z"/></g></g></svg>